ply
format ascii 1.0
comment File exported by Rhinoceros Version 7.0
element vertex 220
property float x
property float y
property float z
property float nx
property float ny
property float nz
property uchar red
property uchar green
property uchar blue
element face 100
property list uchar uint vertex_indices
element material 1
property uchar ambient_red
property uchar ambient_green
property uchar ambient_blue
property uchar ambient_alpha
property uchar diffuse_red
property uchar diffuse_green
property uchar diffuse_blue
property uchar diffuse_alpha
property uchar emissive_red
property uchar emissive_green
property uchar emissive_blue
property uchar emissive_alpha
property uchar specular_red
property uchar specular_green
property uchar specular_blue
property uchar specular_alpha
property double shine
property double transparency
end_header
0.00247207935899496 0.00626249983906746 0.0104374997317791 0 1 0 250 250 250
0.00247207935899496 0.00626249983906746 -0.0104374997317791 0 1 0 250 250 250
0.00556582910940051 0.00626249983906746 0.0104374997317791 0 1 0 250 250 250
0.00556582910940051 0.00626249983906746 -0.0104374997317791 0 1 0 250 250 250
0.00247207935899496 0.00626249983906746 -0.00347916665486991 2.775558E-17 1 0 250 250 250
0.00247207935899496 0.00626249983906746 0.00347916665486991 -1.387779E-17 1 0 250 250 250
0.00556582910940051 0.00626249983906746 0.00347916665486991 -1.387779E-17 1 0 250 250 250
0.00556582910940051 0.00626249983906746 -0.00347916665486991 0 1 0 250 250 250
0.00556582910940051 -0.00626249983906746 0.0104374997317791 0 -1 0 250 250 250
0.00556582910940051 -0.00626249983906746 -0.0104374997317791 0 -1 0 250 250 250
0.00247207935899496 -0.00626249983906746 0.0104374997317791 0 -1 0 250 250 250
0.00247207935899496 -0.00626249983906746 -0.0104374997317791 0 -1 0 250 250 250
0.00247207935899496 -0.00626249983906746 0.00347916665486991 1.387779E-17 -1 0 250 250 250
0.00247207935899496 -0.00626249983906746 -0.00347916665486991 0 -1 0 250 250 250
0.00556582910940051 -0.00626249983906746 -0.00347916665486991 0 -1 0 250 250 250
0.00556582910940051 -0.00626249983906746 0.00347916665486991 0 -1 0 250 250 250
0.00556582910940051 0.00626249983906746 0.0104374997317791 0 0 1 250 250 250
0.00247207935899496 -0.00626249983906746 0.0104374997317791 0 0 1 250 250 250
0.00247207935899496 0.00626249983906746 0.0104374997317791 0 0 1 250 250 250
0.00247207935899496 4.46257614195034E-15 0.0104374997317791 0 0 1 250 250 250
0.00556582910940051 4.46257614195034E-15 0.0104374997317791 0 0 1 250 250 250
0.00556582910940051 -0.00626249983906746 0.0104374997317791 0 0 1 250 250 250
0.00556582910940051 0.00626249983906746 -0.0104374997317791 0 0 -1 250 250 250
0.00247207935899496 -0.00626249983906746 -0.0104374997317791 0 0 -1 250 250 250
0.00247207935899496 0.00626249983906746 -0.0104374997317791 0 0 -1 250 250 250
0.00247207935899496 4.46257614195034E-15 -0.0104374997317791 0 0 -1 250 250 250
0.00556582910940051 4.46257614195034E-15 -0.0104374997317791 0 0 -1 250 250 250
0.00556582910940051 -0.00626249983906746 -0.0104374997317791 0 0 -1 250 250 250
-0.0511529222130775 0.00626249983906746 0.0104374997317791 1 0 0 250 250 250
-0.0511529222130775 0.00626249983906746 -0.0104374997317791 1 0 0 250 250 250
-0.0511529222130775 -0.00626249983906746 0.0104374997317791 1 0 0 250 250 250
-0.0511529222130775 -0.00626249983906746 -0.0104374997317791 1 0 0 250 250 250
-0.0511529222130775 0.00626249983906746 1.38777878078145E-17 1 0 0 250 250 250
-0.0511529222130775 8.53483950180589E-16 0.0104374997317791 1 0 0 250 250 250
-0.0511529222130775 -0.00626249983906746 1.38777878078145E-17 1 0 0 250 250 250
-0.0511529222130775 8.53483950180589E-16 -0.0104374997317791 1 0 0 250 250 250
-0.0604341700673103 0.00626249983906746 0.0104374997317791 0 1 0 250 250 250
-0.0604341700673103 0.00626249983906746 -0.0104374997317791 0 1 0 250 250 250
-0.0511529222130775 0.00626249983906746 0.0104374997317791 0 1 0 250 250 250
-0.0511529222130775 0.00626249983906746 -0.0104374997317791 0 1 0 250 250 250
-0.0511529222130775 0.00626249983906746 1.38777878078145E-17 0 1 0 250 250 250
-0.0604341700673103 0.00626249983906746 3.33066907387547E-16 1.387779E-17 1 0 250 250 250
-0.0511529222130775 -0.00626249983906746 0.0104374997317791 0 -1 0 250 250 250
-0.0511529222130775 -0.00626249983906746 -0.0104374997317791 0 -1 0 250 250 250
-0.0604341700673103 -0.00626249983906746 0.0104374997317791 0 -1 0 250 250 250
-0.0604341700673103 -0.00626249983906746 -0.0104374997317791 0 -1 0 250 250 250
-0.0511529222130775 -0.00626249983906746 1.38777878078145E-17 0 -1 0 250 250 250
-0.0604341700673103 -0.00626249983906746 -4.44089209850063E-16 0 -1 0 250 250 250
-0.0511529222130775 -0.00626249983906746 0.0104374997317791 0 0 1 250 250 250
-0.0511529222130775 0.00626249983906746 0.0104374997317791 0 0 1 250 250 250
-0.0604341700673103 -0.00626249983906746 0.0104374997317791 0 0 1 250 250 250
-0.0511529222130775 8.53483950180589E-16 0.0104374997317791 0 0 1 250 250 250
-0.0604341700673103 8.53483950180589E-16 0.0104374997317791 0 0 1 250 250 250
-0.0604341700673103 0.00626249983906746 0.0104374997317791 0 0 1 250 250 250
-0.0511529222130775 -0.00626249983906746 -0.0104374997317791 0 0 -1 250 250 250
-0.0511529222130775 0.00626249983906746 -0.0104374997317791 0 0 -1 250 250 250
-0.0604341700673103 -0.00626249983906746 -0.0104374997317791 0 0 -1 250 250 250
-0.0511529222130775 8.53483950180589E-16 -0.0104374997317791 0 0 -1 250 250 250
-0.0604341700673103 8.53483950180589E-16 -0.0104374997317791 0 0 -1 250 250 250
-0.0604341700673103 0.00626249983906746 -0.0104374997317791 0 0 -1 250 250 250
-0.00165292073506862 0.00626249983906746 0.0104374997317791 0 1 0 250 250 250
-0.00165292073506862 0.00626249983906746 -0.0104374997317791 0 1 0 250 250 250
0.00247207935899496 0.00626249983906746 0.0104374997317791 0 1 0 250 250 250
0.00247207935899496 0.00626249983906746 -0.0104374997317791 0 1 0 250 250 250
-0.00165292073506862 0.00626249983906746 2.22044604925031E-16 0 1 0 250 250 250
0.00247207935899496 0.00626249983906746 3.53883589099269E-16 1.387779E-17 1 0 250 250 250
0.00247207935899496 -0.00626249983906746 0.0104374997317791 0 -1 0 250 250 250
0.00247207935899496 -0.00626249983906746 -0.0104374997317791 0 -1 0 250 250 250
-0.00165292073506862 -0.00626249983906746 0.0104374997317791 0 -1 0 250 250 250
-0.00165292073506862 -0.00626249983906746 -0.0104374997317791 0 -1 0 250 250 250
-0.00165292073506862 -0.00626249983906746 -2.22044604925031E-16 0 -1 0 250 250 250
0.00247207935899496 -0.00626249983906746 -3.12250225675825E-16 -1.387779E-17 -1 0 250 250 250
0.00247207935899496 -0.00626249983906746 0.0104374997317791 0 0 1 250 250 250
0.00247207935899496 0.00626249983906746 0.0104374997317791 0 0 1 250 250 250
-0.00165292073506862 -0.00626249983906746 0.0104374997317791 0 0 1 250 250 250
-0.00165292073506862 0.00626249983906746 0.0104374997317791 0 0 1 250 250 250
-0.00165292073506862 4.46257614195034E-15 0.0104374997317791 0 0 1 250 250 250
0.00247207935899496 4.46257614195034E-15 0.0104374997317791 0 0 1 250 250 250
0.00247207935899496 -0.00626249983906746 -0.0104374997317791 0 0 -1 250 250 250
0.00247207935899496 0.00626249983906746 -0.0104374997317791 0 0 -1 250 250 250
-0.00165292073506862 -0.00626249983906746 -0.0104374997317791 0 0 -1 250 250 250
-0.00165292073506862 0.00626249983906746 -0.0104374997317791 0 0 -1 250 250 250
-0.00165292073506862 4.46257614195034E-15 -0.0104374997317791 0 0 -1 250 250 250
0.00247207935899496 4.46257614195034E-15 -0.0104374997317791 0 0 -1 250 250 250
-0.00371542084030807 0.00626249983906746 0.0104374997317791 0 1 0 250 250 250
-0.00371542084030807 0.00626249983906746 -0.0104374997317791 0 1 0 250 250 250
-0.00165292073506862 0.00626249983906746 0.0104374997317791 0 1 0 250 250 250
-0.00165292073506862 0.00626249983906746 -0.0104374997317791 0 1 0 250 250 250
-0.00165292073506862 0.00626249983906746 0.00347916665486991 -1.387779E-17 1 0 250 250 250
-0.00165292073506862 0.00626249983906746 -0.00347916665486991 0 1 0 250 250 250
-0.00371542084030807 0.00626249983906746 -0.00347916665486991 0 1 0 250 250 250
-0.00371542084030807 0.00626249983906746 0.00347916665486991 0 1 0 250 250 250
-0.00165292073506862 -0.00626249983906746 0.0104374997317791 0 -1 0 250 250 250
-0.00165292073506862 -0.00626249983906746 -0.0104374997317791 0 -1 0 250 250 250
-0.00371542084030807 -0.00626249983906746 0.0104374997317791 0 -1 0 250 250 250
-0.00371542084030807 -0.00626249983906746 -0.0104374997317791 0 -1 0 250 250 250
-0.00165292073506862 -0.00626249983906746 -0.00347916665486991 2.775558E-17 -1 0 250 250 250
-0.00165292073506862 -0.00626249983906746 0.00347916665486991 0 -1 0 250 250 250
-0.00371542084030807 -0.00626249983906746 0.00347916665486991 1.387779E-17 -1 0 250 250 250
-0.00371542084030807 -0.00626249983906746 -0.00347916665486991 0 -1 0 250 250 250
-0.00165292073506862 -0.00626249983906746 0.0104374997317791 0 0 1 250 250 250
-0.00165292073506862 0.00626249983906746 0.0104374997317791 0 0 1 250 250 250
-0.00371542084030807 -0.00626249983906746 0.0104374997317791 0 0 1 250 250 250
-0.00371542084030807 0.00626249983906746 0.0104374997317791 0 0 1 250 250 250
-0.00165292073506862 0.00208749994635582 0.0104374997317791 0 0 1 250 250 250
-0.00165292073506862 -0.00208749994635582 0.0104374997317791 0 0 1 250 250 250
-0.00371542084030807 -0.00208749994635582 0.0104374997317791 0 0 1 250 250 250
-0.00371542084030807 0.00208749994635582 0.0104374997317791 0 0 1 250 250 250
-0.00165292073506862 -0.00626249983906746 -0.0104374997317791 0 0 -1 250 250 250
-0.00165292073506862 0.00626249983906746 -0.0104374997317791 0 0 -1 250 250 250
-0.00371542084030807 -0.00626249983906746 -0.0104374997317791 0 0 -1 250 250 250
-0.00371542084030807 0.00626249983906746 -0.0104374997317791 0 0 -1 250 250 250
-0.00165292073506862 0.00208749994635582 -0.0104374997317791 0 0 -1 250 250 250
-0.00165292073506862 -0.00208749994635582 -0.0104374997317791 0 0 -1 250 250 250
-0.00371542084030807 -0.00208749994635582 -0.0104374997317791 0 0 -1 250 250 250
-0.00371542084030807 0.00208749994635582 -0.0104374997317791 0 0 -1 250 250 250
-0.00577792059630156 0.00626249983906746 0.0104374997317791 0 1 0 250 250 250
-0.00577792059630156 0.00626249983906746 -0.0104374997317791 0 1 0 250 250 250
-0.00371542084030807 0.00626249983906746 0.0104374997317791 0 1 0 250 250 250
-0.00371542084030807 0.00626249983906746 -0.0104374997317791 0 1 0 250 250 250
-0.00577792059630156 0.00626249983906746 -0.00347916665486991 0 1 0 250 250 250
-0.00577792059630156 0.00626249983906746 0.00347916665486991 0 1 0 250 250 250
-0.00371542084030807 0.00626249983906746 0.00347916665486991 0 1 0 250 250 250
-0.00371542084030807 0.00626249983906746 -0.00347916665486991 0 1 0 250 250 250
-0.00371542084030807 -0.00626249983906746 0.0104374997317791 0 -1 0 250 250 250
-0.00371542084030807 -0.00626249983906746 -0.0104374997317791 0 -1 0 250 250 250
-0.00577792059630156 -0.00626249983906746 0.0104374997317791 0 -1 0 250 250 250
-0.00577792059630156 -0.00626249983906746 -0.0104374997317791 0 -1 0 250 250 250
-0.00577792059630156 -0.00626249983906746 0.00347916665486991 0 -1 0 250 250 250
-0.00577792059630156 -0.00626249983906746 -0.00347916665486991 2.775558E-17 -1 0 250 250 250
-0.00371542084030807 -0.00626249983906746 -0.00347916665486991 0 -1 0 250 250 250
-0.00371542084030807 -0.00626249983906746 0.00347916665486991 1.387779E-17 -1 0 250 250 250
-0.00371542084030807 -0.00626249983906746 0.0104374997317791 0 0 1 250 250 250
-0.00371542084030807 0.00626249983906746 0.0104374997317791 0 0 1 250 250 250
-0.00577792059630156 -0.00626249983906746 0.0104374997317791 0 0 1 250 250 250
-0.00577792059630156 0.00626249983906746 0.0104374997317791 0 0 1 250 250 250
-0.00577792059630156 -0.00208749994635582 0.0104374997317791 0 0 1 250 250 250
-0.00577792059630156 0.00208749994635582 0.0104374997317791 0 0 1 250 250 250
-0.00371542084030807 0.00208749994635582 0.0104374997317791 0 0 1 250 250 250
-0.00371542084030807 -0.00208749994635582 0.0104374997317791 0 0 1 250 250 250
-0.00371542084030807 -0.00626249983906746 -0.0104374997317791 0 0 -1 250 250 250
-0.00371542084030807 0.00626249983906746 -0.0104374997317791 0 0 -1 250 250 250
-0.00577792059630156 -0.00626249983906746 -0.0104374997317791 0 0 -1 250 250 250
-0.00577792059630156 0.00626249983906746 -0.0104374997317791 0 0 -1 250 250 250
-0.00577792059630156 -0.00208749994635582 -0.0104374997317791 0 0 -1 250 250 250
-0.00577792059630156 0.00208749994635582 -0.0104374997317791 0 0 -1 250 250 250
-0.00371542084030807 0.00208749994635582 -0.0104374997317791 0 0 -1 250 250 250
-0.00371542084030807 -0.00208749994635582 -0.0104374997317791 0 0 -1 250 250 250
-0.0181529205292463 0.00626249983906746 -0.0104374997317791 1 -8.933307E-15 0 250 250 250
-0.0181529205292463 -0.00626249983906746 -0.0104374997317791 1 -8.933307E-15 0 250 250 250
-0.0181529205292463 0.00626249983906746 0.0104374997317791 1 -8.933307E-15 0 250 250 250
-0.0181529205292463 -0.00626249983906746 0.0104374997317791 1 -8.933307E-15 0 250 250 250
-0.0181529205292463 0.00626249983906746 3.29597460435593E-17 1 -8.933307E-15 0 250 250 250
-0.0181529205292463 -0.00626249983906746 3.29597460435593E-17 1 -8.933307E-15 0 250 250 250
-0.0511529222130775 0.00626249983906746 0.0104374997317791 -3.772915E-14 1 1.298446E-16 250 250 250
-0.0181529205292463 0.00626249983906746 0.0104374997317791 -3.772915E-14 1 1.038757E-16 250 250 250
-0.0181529205292463 0.00626249983906746 -0.0104374997317791 -3.771811E-14 1 1.038757E-16 250 250 250
-0.0181529205292463 0.00626249983906746 3.29597460435593E-17 -3.772363E-14 1 1.038757E-16 250 250 250
-0.0346529223024845 0.00626249983906746 0.0104374997317791 -3.772915E-14 1 1.558135E-16 250 250 250
-0.0511529222130775 0.00626249983906746 -0.0104374997317791 -3.771811E-14 1 1.038757E-16 250 250 250
-0.0346529223024845 0.00626249983906746 -0.0104374997317791 -3.771811E-14 1 1.558135E-16 250 250 250
-0.0511529222130775 0.00626249983906746 -0.0104374997317791 3.091649E-16 -1.541506E-30 -1 250 250 250
-0.0181529205292463 0.00626249983906746 -0.0104374997317791 3.091649E-16 -2.761864E-30 -1 250 250 250
-0.0181529205292463 -0.00626249983906746 -0.0104374997317791 3.091649E-16 -2.761864E-30 -1 250 250 250
-0.0511529222130775 -0.00626249983906746 -0.0104374997317791 3.091649E-16 -1.509391E-30 -1 250 250 250
-0.0346529223024845 0.00626249983906746 -0.0104374997317791 3.091649E-16 -2.11957E-30 -1 250 250 250
-0.0346529223024845 -0.00626249983906746 -0.0104374997317791 3.091649E-16 -2.11957E-30 -1 250 250 250
-0.0181529205292463 0.00626249983906746 0.0104374997317791 -3.091649E-16 2.761864E-30 1 250 250 250
-0.0181529205292463 -0.00626249983906746 0.0104374997317791 -3.091649E-16 2.761864E-30 1 250 250 250
-0.0511529222130775 0.00626249983906746 0.0104374997317791 -3.091649E-16 1.541506E-30 1 250 250 250
-0.0346529223024845 0.00626249983906746 0.0104374997317791 -3.091649E-16 2.11957E-30 1 250 250 250
-0.0511529222130775 -0.00626249983906746 0.0104374997317791 -3.091649E-16 1.541506E-30 1 250 250 250
-0.0346529223024845 -0.00626249983906746 0.0104374997317791 -3.091649E-16 2.11957E-30 1 250 250 250
-0.0511529222130775 -0.00626249983906746 0.0104374997317791 3.771811E-14 -1 -1.038757E-16 250 250 250
-0.0181529205292463 -0.00626249983906746 0.0104374997317791 3.771811E-14 -1 -5.193783E-17 250 250 250
-0.0181529205292463 -0.00626249983906746 -0.0104374997317791 3.771811E-14 -1 -5.193783E-17 250 250 250
-0.0181529205292463 -0.00626249983906746 3.29597460435593E-17 3.771811E-14 -1 -5.193783E-17 250 250 250
-0.0346529223024845 -0.00626249983906746 0.0104374997317791 3.771811E-14 -1 -7.790674E-17 250 250 250
-0.0511529222130775 -0.00626249983906746 -0.0104374997317791 3.771811E-14 -1 -7.790674E-17 250 250 250
-0.0346529223024845 -0.00626249983906746 -0.0104374997317791 3.771811E-14 -1 -5.193783E-17 250 250 250
-0.0181529205292463 -0.00626249983906746 0.0104374997317791 -1 0 0 250 250 250
-0.0181529205292463 -0.00626249983906746 -0.0104374997317791 -1 0 0 250 250 250
-0.0181529205292463 0.00626249983906746 0.0104374997317791 -1 0 0 250 250 250
-0.0181529205292463 0.00626249983906746 -0.0104374997317791 -1 0 0 250 250 250
-0.0181529205292463 4.46257614195034E-15 0.0104374997317791 -1 0 0 250 250 250
-0.0181529205292463 0.00626249983906746 3.46944695195361E-17 -1 0 0 250 250 250
-0.0181529205292463 4.46257614195034E-15 -0.0104374997317791 -1 0 0 250 250 250
-0.0181529205292463 -0.00626249983906746 3.46944695195361E-17 -1 0 0 250 250 250
-0.0181529205292463 0.00626249983906746 0.0104374997317791 0 1 0 250 250 250
-0.0181529205292463 0.00626249983906746 -0.0104374997317791 0 1 0 250 250 250
-0.00577792059630156 0.00626249983906746 0.0104374997317791 0 1 0 250 250 250
-0.00577792059630156 0.00626249983906746 -0.0104374997317791 0 1 0 250 250 250
-0.0181529205292463 0.00626249983906746 3.46944695195361E-17 0 1 0 250 250 250
-0.0119654210284352 0.00626249983906746 0.0104374997317791 0 1 0 250 250 250
-0.0119654210284352 0.00626249983906746 -0.0104374997317791 0 1 0 250 250 250
-0.00577792059630156 0.00626249983906746 3.33066907387547E-16 1.387779E-17 1 0 250 250 250
-0.00577792059630156 -0.00626249983906746 0.0104374997317791 0 -1 0 250 250 250
-0.00577792059630156 -0.00626249983906746 -0.0104374997317791 0 -1 0 250 250 250
-0.0181529205292463 -0.00626249983906746 0.0104374997317791 0 -1 0 250 250 250
-0.0181529205292463 -0.00626249983906746 -0.0104374997317791 0 -1 0 250 250 250
-0.0181529205292463 -0.00626249983906746 3.46944695195361E-17 0 -1 0 250 250 250
-0.00577792059630156 -0.00626249983906746 -2.22044604925031E-16 -1.387779E-17 -1 0 250 250 250
-0.0119654210284352 -0.00626249983906746 0.0104374997317791 0 -1 0 250 250 250
-0.0119654210284352 -0.00626249983906746 -0.0104374997317791 0 -1 0 250 250 250
-0.00577792059630156 -0.00626249983906746 0.0104374997317791 0 0 1 250 250 250
-0.00577792059630156 0.00626249983906746 0.0104374997317791 0 0 1 250 250 250
-0.0181529205292463 -0.00626249983906746 0.0104374997317791 0 0 1 250 250 250
-0.0181529205292463 0.00626249983906746 0.0104374997317791 0 0 1 250 250 250
-0.0181529205292463 4.46257614195034E-15 0.0104374997317791 0 0 1 250 250 250
-0.0119654210284352 0.00626249983906746 0.0104374997317791 0 0 1 250 250 250
-0.00577792059630156 4.46257614195034E-15 0.0104374997317791 0 0 1 250 250 250
-0.0119654210284352 -0.00626249983906746 0.0104374997317791 0 0 1 250 250 250
-0.00577792059630156 -0.00626249983906746 -0.0104374997317791 0 0 -1 250 250 250
-0.00577792059630156 0.00626249983906746 -0.0104374997317791 0 0 -1 250 250 250
-0.0181529205292463 -0.00626249983906746 -0.0104374997317791 0 0 -1 250 250 250
-0.0181529205292463 0.00626249983906746 -0.0104374997317791 0 0 -1 250 250 250
-0.0181529205292463 4.46257614195034E-15 -0.0104374997317791 0 0 -1 250 250 250
-0.0119654210284352 0.00626249983906746 -0.0104374997317791 0 0 -1 250 250 250
-0.00577792059630156 4.46257614195034E-15 -0.0104374997317791 0 0 -1 250 250 250
-0.0119654210284352 -0.00626249983906746 -0.0104374997317791 0 0 -1 250 250 250
4 5 0 2 6
4 1 4 7 3
4 4 5 6 7
4 15 8 10 12
4 9 14 13 11
4 14 15 12 13
4 20 19 17 21
4 16 18 19 20
4 26 27 23 25
4 22 26 25 24
3 32 28 33
3 32 35 29
3 34 32 33
3 32 34 35
3 34 31 35
3 30 34 33
4 41 36 38 40
4 37 41 40 39
4 46 42 44 47
4 43 46 47 45
4 51 52 50 48
4 49 53 52 51
4 57 54 56 58
4 55 57 58 59
4 64 60 62 65
4 61 64 65 63
4 71 66 68 70
4 67 71 70 69
4 77 76 74 72
4 73 75 76 77
4 83 78 80 82
4 79 83 82 81
4 91 84 86 88
4 85 90 89 87
4 90 91 88 89
4 97 92 94 98
4 93 96 99 95
4 96 97 98 99
4 105 106 102 100
4 101 103 107 104
4 104 107 106 105
4 113 108 110 114
4 109 112 115 111
4 112 113 114 115
4 121 116 118 122
4 117 120 123 119
4 120 121 122 123
4 131 124 126 128
4 125 130 129 127
4 130 131 128 129
4 139 136 134 132
4 133 135 137 138
4 138 137 136 139
4 147 140 142 144
4 141 146 145 143
4 146 147 144 145
4 149 148 152 153
4 150 151 153 152
4 158 160 159 154
3 157 158 155
3 158 157 160
3 160 157 156
4 161 165 166 164
4 163 166 165 162
4 172 168 167 170
4 170 169 171 172
4 177 173 178 179
3 176 174 177
3 177 179 176
3 179 175 176
3 187 180 184
3 187 186 181
3 185 187 184
3 187 185 186
3 185 183 186
3 182 185 184
3 192 188 193
3 192 194 189
3 195 192 193
3 192 195 194
3 195 191 194
3 190 195 193
3 201 196 202
3 201 203 197
3 203 201 202
3 202 200 203
3 200 199 203
3 198 200 202
3 210 211 204
3 210 205 209
3 208 211 210
3 210 209 208
3 208 209 207
3 206 211 208
3 218 212 219
3 218 217 213
3 216 218 219
3 218 216 217
3 216 215 217
3 214 216 219
0 0 0 255 250 250 250 255 0 0 0 255 255 255 255 255 0 0
