ply
format ascii 1.0
comment File exported by Rhinoceros Version 7.0
element vertex 130
property float x
property float y
property float z
property float nx
property float ny
property float nz
property uchar red
property uchar green
property uchar blue
element face 92
property list uchar uint vertex_indices
element material 1
property uchar ambient_red
property uchar ambient_green
property uchar ambient_blue
property uchar ambient_alpha
property uchar diffuse_red
property uchar diffuse_green
property uchar diffuse_blue
property uchar diffuse_alpha
property uchar emissive_red
property uchar emissive_green
property uchar emissive_blue
property uchar emissive_alpha
property uchar specular_red
property uchar specular_green
property uchar specular_blue
property uchar specular_alpha
property double shine
property double transparency
end_header
0.00694444449618459 -3.72347329088804E-18 0.0138888889923692 1 2.220446E-16 8.320017E-32 250 250 250
0.00694444449618459 6.68486756497281E-18 -0.0138888889923692 1 2.220446E-16 8.320017E-32 250 250 250
0.00682850927114487 -0.00126363232266158 0.0138888889923692 0.9833054 -0.1819631 -6.818161E-17 250 250 250
0.00682850927114487 -0.00126363232266158 -0.0138888889923692 0.9833054 -0.1819631 -6.818161E-17 250 250 250
0.00645686313509941 -0.00255621317774057 0.0138888889923692 0.9297883 -0.3680947 -1.379252E-16 250 250 250
0.00645686313509941 -0.00255621317774057 -0.0138888889923692 0.9297883 -0.3680947 -1.379252E-16 250 250 250
0.00581246893852949 -0.0038000678177923 0.0138888889923692 0.8369955 -0.5472097 -2.050396E-16 250 250 250
0.00581246893852949 -0.0038000678177923 -0.0138888889923692 0.8369955 -0.5472097 -2.050396E-16 250 250 250
0.00491046393290162 -0.00491046393290162 0.0138888889923692 0.7071068 -0.7071068 -2.649531E-16 250 250 250
0.00491046393290162 -0.00491046393290162 -0.0138888889923692 0.7071068 -0.7071068 -2.649531E-16 250 250 250
0.0038000678177923 -0.00581246893852949 0.0138888889923692 0.5472097 -0.8369955 -3.136224E-16 250 250 250
0.0038000678177923 -0.00581246893852949 -0.0138888889923692 0.5472097 -0.8369955 -3.136224E-16 250 250 250
0.00255621317774057 -0.00645686313509941 0.0138888889923692 0.3680947 -0.9297883 -3.483919E-16 250 250 250
0.00255621317774057 -0.00645686313509941 -0.0138888889923692 0.3680947 -0.9297883 -3.483919E-16 250 250 250
0.00126363232266158 -0.00682850927114487 0.0138888889923692 0.1819631 -0.9833054 -3.684448E-16 250 250 250
0.00126363232266158 -0.00682850927114487 -0.0138888889923692 0.1819631 -0.9833054 -3.684448E-16 250 250 250
8.67361737988404E-18 -0.00694444449618459 0.0138888889923692 2.220446E-16 -1 -3.747003E-16 250 250 250
8.67361737988404E-18 -0.00694444449618459 -0.0138888889923692 2.220446E-16 -1 -3.747003E-16 250 250 250
-0.00126363232266158 -0.00682850927114487 0.0138888889923692 -0.1819631 -0.9833054 -3.684448E-16 250 250 250
-0.00126363232266158 -0.00682850927114487 -0.0138888889923692 -0.1819631 -0.9833054 -3.684448E-16 250 250 250
-0.00255621317774057 -0.00645686313509941 0.0138888889923692 -0.3680947 -0.9297883 -3.483919E-16 250 250 250
-0.00255621317774057 -0.00645686313509941 -0.0138888889923692 -0.3680947 -0.9297883 -3.483919E-16 250 250 250
-0.0038000678177923 -0.00581246893852949 0.0138888889923692 -0.5472097 -0.8369955 -3.136224E-16 250 250 250
-0.0038000678177923 -0.00581246893852949 -0.0138888889923692 -0.5472097 -0.8369955 -3.136224E-16 250 250 250
-0.00491046393290162 -0.00491046393290162 0.0138888889923692 -0.7071068 -0.7071068 -2.649531E-16 250 250 250
-0.00491046393290162 -0.00491046393290162 -0.0138888889923692 -0.7071068 -0.7071068 -2.649531E-16 250 250 250
-0.00581246893852949 -0.0038000678177923 0.0138888889923692 -0.8369955 -0.5472097 -2.050396E-16 250 250 250
-0.00581246893852949 -0.0038000678177923 -0.0138888889923692 -0.8369955 -0.5472097 -2.050396E-16 250 250 250
-0.00645686313509941 -0.00255621317774057 0.0138888889923692 -0.9297883 -0.3680947 -1.379252E-16 250 250 250
-0.00645686313509941 -0.00255621317774057 -0.0138888889923692 -0.9297883 -0.3680947 -1.379252E-16 250 250 250
-0.00682850927114487 -0.00126363232266158 0.0138888889923692 -0.9833054 -0.1819631 -6.818161E-17 250 250 250
-0.00682850927114487 -0.00126363232266158 -0.0138888889923692 -0.9833054 -0.1819631 -6.818161E-17 250 250 250
-0.00694444449618459 -7.65787515643526E-18 0.0138888889923692 -1 -4.86332E-17 -1.822287E-32 250 250 250
-0.00694444449618459 2.75046569942559E-18 -0.0138888889923692 -1 -4.86332E-17 -1.822287E-32 250 250 250
-0.00682850927114487 0.00126363232266158 0.0138888889923692 -0.9833054 0.1819631 6.818161E-17 250 250 250
-0.00682850927114487 0.00126363232266158 -0.0138888889923692 -0.9833054 0.1819631 6.818161E-17 250 250 250
-0.00645686313509941 0.00255621317774057 0.0138888889923692 -0.9297883 0.3680947 1.379252E-16 250 250 250
-0.00645686313509941 0.00255621317774057 -0.0138888889923692 -0.9297883 0.3680947 1.379252E-16 250 250 250
-0.00581246893852949 0.0038000678177923 0.0138888889923692 -0.8369955 0.5472097 2.050396E-16 250 250 250
-0.00581246893852949 0.0038000678177923 -0.0138888889923692 -0.8369955 0.5472097 2.050396E-16 250 250 250
-0.00491046393290162 0.00491046393290162 0.0138888889923692 -0.7071068 0.7071068 2.649531E-16 250 250 250
-0.00491046393290162 0.00491046393290162 -0.0138888889923692 -0.7071068 0.7071068 2.649531E-16 250 250 250
-0.0038000678177923 0.00581246893852949 0.0138888889923692 -0.5472097 0.8369955 3.136224E-16 250 250 250
-0.0038000678177923 0.00581246893852949 -0.0138888889923692 -0.5472097 0.8369955 3.136224E-16 250 250 250
-0.00255621317774057 0.00645686313509941 0.0138888889923692 -0.3680947 0.9297883 3.483919E-16 250 250 250
-0.00255621317774057 0.00645686313509941 -0.0138888889923692 -0.3680947 0.9297883 3.483919E-16 250 250 250
-0.00126363232266158 0.00682850927114487 0.0138888889923692 -0.1819631 0.9833054 3.684448E-16 250 250 250
-0.00126363232266158 0.00682850927114487 -0.0138888889923692 -0.1819631 0.9833054 3.684448E-16 250 250 250
5.20417042793042E-18 0.00694444449618459 0.0138888889923692 -3.087503E-16 1 3.747003E-16 250 250 250
5.20417042793042E-18 0.00694444449618459 -0.0138888889923692 -3.087503E-16 1 3.747003E-16 250 250 250
0.00126363232266158 0.00682850927114487 0.0138888889923692 0.1819631 0.9833054 3.684448E-16 250 250 250
0.00126363232266158 0.00682850927114487 -0.0138888889923692 0.1819631 0.9833054 3.684448E-16 250 250 250
0.00255621317774057 0.00645686313509941 0.0138888889923692 0.3680947 0.9297883 3.483919E-16 250 250 250
0.00255621317774057 0.00645686313509941 -0.0138888889923692 0.3680947 0.9297883 3.483919E-16 250 250 250
0.0038000678177923 0.00581246893852949 0.0138888889923692 0.5472097 0.8369955 3.136224E-16 250 250 250
0.0038000678177923 0.00581246893852949 -0.0138888889923692 0.5472097 0.8369955 3.136224E-16 250 250 250
0.00491046393290162 0.00491046393290162 0.0138888889923692 0.7071068 0.7071068 2.649531E-16 250 250 250
0.00491046393290162 0.00491046393290162 -0.0138888889923692 0.7071068 0.7071068 2.649531E-16 250 250 250
0.00581246893852949 0.0038000678177923 0.0138888889923692 0.8369955 0.5472097 2.050396E-16 250 250 250
0.00581246893852949 0.0038000678177923 -0.0138888889923692 0.8369955 0.5472097 2.050396E-16 250 250 250
0.00645686313509941 0.00255621317774057 0.0138888889923692 0.9297883 0.3680947 1.379252E-16 250 250 250
0.00645686313509941 0.00255621317774057 -0.0138888889923692 0.9297883 0.3680947 1.379252E-16 250 250 250
0.00682850927114487 0.00126363232266158 0.0138888889923692 0.9833054 0.1819631 6.818161E-17 250 250 250
0.00682850927114487 0.00126363232266158 -0.0138888889923692 0.9833054 0.1819631 6.818161E-17 250 250 250
0.00694444449618459 -3.72347329088804E-18 0.0138888889923692 1 2.220446E-16 8.320017E-32 250 250 250
0.00694444449618459 6.68486756497281E-18 -0.0138888889923692 1 2.220446E-16 8.320017E-32 250 250 250
0.00694444449618459 -3.72347329088804E-18 0.0138888889923692 0 -3.747003E-16 1 250 250 250
0.00682850927114487 -0.00126363232266158 0.0138888889923692 0 -3.747003E-16 1 250 250 250
0.00645686313509941 -0.00255621317774057 0.0138888889923692 0 -3.747003E-16 1 250 250 250
0.00581246893852949 -0.0038000678177923 0.0138888889923692 0 -3.747003E-16 1 250 250 250
0.00491046393290162 -0.00491046393290162 0.0138888889923692 0 -3.747003E-16 1 250 250 250
0.0038000678177923 -0.00581246893852949 0.0138888889923692 0 -3.747003E-16 1 250 250 250
0.00255621317774057 -0.00645686313509941 0.0138888889923692 0 -3.747003E-16 1 250 250 250
0.00126363232266158 -0.00682850927114487 0.0138888889923692 0 -3.747003E-16 1 250 250 250
8.67361737988404E-18 -0.00694444449618459 0.0138888889923692 0 -3.747003E-16 1 250 250 250
-0.00126363232266158 -0.00682850927114487 0.0138888889923692 0 -3.747003E-16 1 250 250 250
-0.00255621317774057 -0.00645686313509941 0.0138888889923692 0 -3.747003E-16 1 250 250 250
-0.0038000678177923 -0.00581246893852949 0.0138888889923692 0 -3.747003E-16 1 250 250 250
-0.00491046393290162 -0.00491046393290162 0.0138888889923692 0 -3.747003E-16 1 250 250 250
-0.00581246893852949 -0.0038000678177923 0.0138888889923692 0 -3.747003E-16 1 250 250 250
-0.00645686313509941 -0.00255621317774057 0.0138888889923692 0 -3.747003E-16 1 250 250 250
-0.00682850927114487 -0.00126363232266158 0.0138888889923692 0 -3.747003E-16 1 250 250 250
-0.00694444449618459 -7.65787515643526E-18 0.0138888889923692 0 -3.747003E-16 1 250 250 250
-0.00682850927114487 0.00126363232266158 0.0138888889923692 0 -3.747003E-16 1 250 250 250
-0.00645686313509941 0.00255621317774057 0.0138888889923692 0 -3.747003E-16 1 250 250 250
-0.00581246893852949 0.0038000678177923 0.0138888889923692 0 -3.747003E-16 1 250 250 250
-0.00491046393290162 0.00491046393290162 0.0138888889923692 0 -3.747003E-16 1 250 250 250
-0.0038000678177923 0.00581246893852949 0.0138888889923692 0 -3.747003E-16 1 250 250 250
-0.00255621317774057 0.00645686313509941 0.0138888889923692 0 -3.747003E-16 1 250 250 250
-0.00126363232266158 0.00682850927114487 0.0138888889923692 0 -3.747003E-16 1 250 250 250
5.20417042793042E-18 0.00694444449618459 0.0138888889923692 0 -3.747003E-16 1 250 250 250
0.00126363232266158 0.00682850927114487 0.0138888889923692 0 -3.747003E-16 1 250 250 250
0.00255621317774057 0.00645686313509941 0.0138888889923692 0 -3.747003E-16 1 250 250 250
0.0038000678177923 0.00581246893852949 0.0138888889923692 0 -3.747003E-16 1 250 250 250
0.00491046393290162 0.00491046393290162 0.0138888889923692 0 -3.747003E-16 1 250 250 250
0.00581246893852949 0.0038000678177923 0.0138888889923692 0 -3.747003E-16 1 250 250 250
0.00645686313509941 0.00255621317774057 0.0138888889923692 0 -3.747003E-16 1 250 250 250
0.00682850927114487 0.00126363232266158 0.0138888889923692 0 -3.747003E-16 1 250 250 250
0.00694444449618459 6.68486756497281E-18 -0.0138888889923692 0 3.747003E-16 -1 250 250 250
0.00682850927114487 -0.00126363232266158 -0.0138888889923692 0 3.747003E-16 -1 250 250 250
0.00645686313509941 -0.00255621317774057 -0.0138888889923692 0 3.747003E-16 -1 250 250 250
0.00581246893852949 -0.0038000678177923 -0.0138888889923692 0 3.747003E-16 -1 250 250 250
0.00491046393290162 -0.00491046393290162 -0.0138888889923692 0 3.747003E-16 -1 250 250 250
0.0038000678177923 -0.00581246893852949 -0.0138888889923692 0 3.747003E-16 -1 250 250 250
0.00255621317774057 -0.00645686313509941 -0.0138888889923692 0 3.747003E-16 -1 250 250 250
0.00126363232266158 -0.00682850927114487 -0.0138888889923692 0 3.747003E-16 -1 250 250 250
8.67361737988404E-18 -0.00694444449618459 -0.0138888889923692 0 3.747003E-16 -1 250 250 250
-0.00126363232266158 -0.00682850927114487 -0.0138888889923692 0 3.747003E-16 -1 250 250 250
-0.00255621317774057 -0.00645686313509941 -0.0138888889923692 0 3.747003E-16 -1 250 250 250
-0.0038000678177923 -0.00581246893852949 -0.0138888889923692 0 3.747003E-16 -1 250 250 250
-0.00491046393290162 -0.00491046393290162 -0.0138888889923692 0 3.747003E-16 -1 250 250 250
-0.00581246893852949 -0.0038000678177923 -0.0138888889923692 0 3.747003E-16 -1 250 250 250
-0.00645686313509941 -0.00255621317774057 -0.0138888889923692 0 3.747003E-16 -1 250 250 250
-0.00682850927114487 -0.00126363232266158 -0.0138888889923692 0 3.747003E-16 -1 250 250 250
-0.00694444449618459 2.75046569942559E-18 -0.0138888889923692 0 3.747003E-16 -1 250 250 250
-0.00682850927114487 0.00126363232266158 -0.0138888889923692 0 3.747003E-16 -1 250 250 250
-0.00645686313509941 0.00255621317774057 -0.0138888889923692 0 3.747003E-16 -1 250 250 250
-0.00581246893852949 0.0038000678177923 -0.0138888889923692 0 3.747003E-16 -1 250 250 250
-0.00491046393290162 0.00491046393290162 -0.0138888889923692 0 3.747003E-16 -1 250 250 250
-0.0038000678177923 0.00581246893852949 -0.0138888889923692 0 3.747003E-16 -1 250 250 250
-0.00255621317774057 0.00645686313509941 -0.0138888889923692 0 3.747003E-16 -1 250 250 250
-0.00126363232266158 0.00682850927114487 -0.0138888889923692 0 3.747003E-16 -1 250 250 250
5.20417042793042E-18 0.00694444449618459 -0.0138888889923692 0 3.747003E-16 -1 250 250 250
0.00126363232266158 0.00682850927114487 -0.0138888889923692 0 3.747003E-16 -1 250 250 250
0.00255621317774057 0.00645686313509941 -0.0138888889923692 0 3.747003E-16 -1 250 250 250
0.0038000678177923 0.00581246893852949 -0.0138888889923692 0 3.747003E-16 -1 250 250 250
0.00491046393290162 0.00491046393290162 -0.0138888889923692 0 3.747003E-16 -1 250 250 250
0.00581246893852949 0.0038000678177923 -0.0138888889923692 0 3.747003E-16 -1 250 250 250
0.00645686313509941 0.00255621317774057 -0.0138888889923692 0 3.747003E-16 -1 250 250 250
0.00682850927114487 0.00126363232266158 -0.0138888889923692 0 3.747003E-16 -1 250 250 250
4 0 2 3 1
4 2 4 5 3
4 4 6 7 5
4 6 8 9 7
4 8 10 11 9
4 10 12 13 11
4 12 14 15 13
4 14 16 17 15
4 16 18 19 17
4 18 20 21 19
4 20 22 23 21
4 22 24 25 23
4 24 26 27 25
4 26 28 29 27
4 28 30 31 29
4 30 32 33 31
4 32 34 35 33
4 34 36 37 35
4 36 38 39 37
4 38 40 41 39
4 40 42 43 41
4 42 44 45 43
4 44 46 47 45
4 46 48 49 47
4 48 50 51 49
4 50 52 53 51
4 52 54 55 53
4 54 56 57 55
4 56 58 59 57
4 58 60 61 59
4 60 62 63 61
4 62 64 65 63
3 85 83 81
3 85 84 83
3 87 86 85
3 81 89 85
3 89 88 87
3 89 87 85
3 79 73 89
3 79 89 81
3 81 80 79
3 81 83 82
3 77 79 78
3 77 76 75
3 75 73 77
3 77 73 79
3 91 90 89
3 93 92 91
3 91 94 93
3 94 91 73
3 94 97 96
3 97 94 66
3 96 95 94
3 66 94 73
3 73 72 71
3 70 73 71
3 73 75 74
3 70 68 67
3 68 70 69
3 73 70 67
3 73 67 66
3 91 89 73
3 117 113 115
3 117 115 116
3 119 117 118
3 113 117 121
3 121 119 120
3 121 117 119
3 111 121 105
3 111 113 121
3 113 111 112
3 113 114 115
3 109 110 111
3 109 107 108
3 107 109 105
3 109 111 105
3 123 121 122
3 125 123 124
3 123 125 126
3 126 105 123
3 126 128 129
3 129 98 126
3 128 126 127
3 98 105 126
3 105 103 104
3 102 103 105
3 105 106 107
3 102 99 100
3 100 101 102
3 105 99 102
3 105 98 99
3 123 105 121
0 0 0 255 250 250 250 255 0 0 0 255 255 255 255 255 0 0
