ply
format ascii 1.0
comment File exported by Rhinoceros Version 7.0
element vertex 234
property float x
property float y
property float z
property float nx
property float ny
property float nz
property uchar red
property uchar green
property uchar blue
element face 200
property list uchar uint vertex_indices
element material 1
property uchar ambient_red
property uchar ambient_green
property uchar ambient_blue
property uchar ambient_alpha
property uchar diffuse_red
property uchar diffuse_green
property uchar diffuse_blue
property uchar diffuse_alpha
property uchar emissive_red
property uchar emissive_green
property uchar emissive_blue
property uchar emissive_alpha
property uchar specular_red
property uchar specular_green
property uchar specular_blue
property uchar specular_alpha
property double shine
property double transparency
end_header
-0.045080691576004 -0.00625538500025868 0.00488888891413808 -1 0 0 250 250 250
-0.045080691576004 -0.00625538500025868 -0.0051111108623445 -1 0 0 250 250 250
-0.045080691576004 0.0062553845345974 0.00488888891413808 -1 0 0 250 250 250
-0.045080691576004 0.0062553845345974 -0.0051111108623445 -1 0 0 250 250 250
-0.045080691576004 -2.38246696676603E-11 0.00488888891413808 -1 0 0 250 250 250
-0.045080691576004 0.0062553845345974 -0.000111111010483 -1 0 0 250 250 250
-0.045080691576004 -2.38246696676603E-11 -0.0051111108623445 -1 0 0 250 250 250
-0.045080691576004 -0.00625538500025868 -0.000111111010483 -1 0 0 250 250 250
-0.045080691576004 0.0062553845345974 0.00488888891413808 0 1 0 250 250 250
-0.045080691576004 0.0062553845345974 -0.0051111108623445 0 1 0 250 250 250
-0.00607331888750196 0.0062553845345974 0.00488888891413808 0 1 0 250 250 250
-0.00607331888750196 0.0062553845345974 -0.0051111108623445 0 1 0 250 250 250
-0.045080691576004 0.0062553845345974 -0.000111111010483 0 1 0 250 250 250
-0.00607331888750196 0.0062553845345974 -0.000111111010483 0 1 0 250 250 250
-0.0255770049989223 0.0062553845345974 -0.0051111108623445 0 1 0 250 250 250
-0.0255770049989223 0.0062553845345974 0.00488888891413808 0 1 0 250 250 250
-0.00607331888750196 -0.00625538500025868 0.00488888891413808 0 -1 0 250 250 250
-0.00607331888750196 -0.00625538500025868 -0.0051111108623445 0 -1 0 250 250 250
-0.045080691576004 -0.00625538500025868 0.00488888891413808 0 -1 0 250 250 250
-0.045080691576004 -0.00625538500025868 -0.0051111108623445 0 -1 0 250 250 250
-0.045080691576004 -0.00625538500025868 -0.000111111010483 0 -1 0 250 250 250
-0.00607331888750196 -0.00625538500025868 -0.000111111010483 0 -1 0 250 250 250
-0.0255770049989223 -0.00625538500025868 0.00488888891413808 0 -1 0 250 250 250
-0.0255770049989223 -0.00625538500025868 -0.0051111108623445 0 -1 0 250 250 250
-0.00607331888750196 -0.00625538500025868 0.00488888891413808 0 0 1 250 250 250
-0.00607331888750196 0.0062553845345974 0.00488888891413808 0 0 1 250 250 250
-0.045080691576004 -0.00625538500025868 0.00488888891413808 0 0 1 250 250 250
-0.045080691576004 0.0062553845345974 0.00488888891413808 0 0 1 250 250 250
-0.045080691576004 -2.38246696676603E-11 0.00488888891413808 0 0 1 250 250 250
-0.0255770049989223 -2.38246696676603E-11 0.00488888891413808 0 0 1 250 250 250
-0.0255770049989223 0.0062553845345974 0.00488888891413808 0 0 1 250 250 250
-0.0255770049989223 -0.00625538500025868 0.00488888891413808 0 0 1 250 250 250
-0.00767070986330509 0.00521140685304999 0.00488888891413808 0 0 1 250 250 250
-0.00896497536450624 0.00370361702516675 0.00488888891413808 0 0 1 250 250 250
-0.00977705046534538 0.00189003290142864 0.00488888891413808 0 0 1 250 250 250
-0.0100403428077698 9.80984043996713E-12 0.00488888891413808 0 0 1 250 250 250
-0.0255770049989223 0.0031276922672987 0.00488888891413808 1.387779E-17 0 1 250 250 250
-0.0158251617103815 -2.38246696676603E-11 0.00488888891413808 0 0 1 250 250 250
-0.0158251617103815 0.0031276922672987 0.00488888891413808 1.387779E-17 0 1 250 250 250
-0.0158251617103815 0.00469153840094805 0.00488888891413808 0 0 1 250 250 250
-0.0109492400661111 0.0031276922672987 0.00488888891413808 1.387779E-17 0 1 250 250 250
-0.0109492400661111 0.00469153840094805 0.00488888891413808 0 0 1 250 250 250
-0.0158251617103815 0.00156384613364935 0.00488888891413808 1.387779E-17 0 1 250 250 250
-0.0255770049989223 -0.00312769250012934 0.00488888891413808 0 0 1 250 250 250
-0.0158251617103815 -0.00312769250012934 0.00488888891413808 0 0 1 250 250 250
-0.00977705046534538 -0.00189003290142864 0.00488888891413808 0 0 1 250 250 250
-0.00896497536450624 -0.00370361725799739 0.00488888891413808 0 0 1 250 250 250
-0.00767070986330509 -0.00521140685304999 0.00488888891413808 0 0 1 250 250 250
-0.0158251617103815 -0.00156384625006467 0.00488888891413808 6.938894E-18 0 1 250 250 250
-0.0109492400661111 -0.00312769250012934 0.00488888891413808 0 0 1 250 250 250
-0.0158251617103815 -0.00469153840094805 0.00488888891413808 -6.938894E-18 0 1 250 250 250
-0.0109492400661111 -0.00469153840094805 0.00488888891413808 -6.938894E-18 0 1 250 250 250
-0.00607331888750196 -0.00625538500025868 -0.0051111108623445 0 0 -1 250 250 250
-0.00607331888750196 0.0062553845345974 -0.0051111108623445 0 0 -1 250 250 250
-0.045080691576004 -0.00625538500025868 -0.0051111108623445 0 0 -1 250 250 250
-0.045080691576004 0.0062553845345974 -0.0051111108623445 0 0 -1 250 250 250
-0.045080691576004 -2.38246696676603E-11 -0.0051111108623445 0 0 -1 250 250 250
-0.0255770049989223 -2.38246696676603E-11 -0.0051111108623445 0 0 -1 250 250 250
-0.0255770049989223 0.0062553845345974 -0.0051111108623445 0 0 -1 250 250 250
-0.0255770049989223 -0.00625538500025868 -0.0051111108623445 0 0 -1 250 250 250
-0.00767070986330509 0.00521140685304999 -0.0051111108623445 0 0 -1 250 250 250
-0.00896497536450624 0.00370361702516675 -0.0051111108623445 0 0 -1 250 250 250
-0.00977705046534538 0.00189003290142864 -0.0051111108623445 0 0 -1 250 250 250
-0.0100403428077698 9.80984043996713E-12 -0.0051111108623445 0 0 -1 250 250 250
-0.0255770049989223 0.0031276922672987 -0.0051111108623445 0 0 -1 250 250 250
-0.0158251617103815 -2.38246696676603E-11 -0.0051111108623445 0 0 -1 250 250 250
-0.0158251617103815 0.0031276922672987 -0.0051111108623445 0 0 -1 250 250 250
-0.0158251617103815 0.00469153840094805 -0.0051111108623445 0 0 -1 250 250 250
-0.0109492400661111 0.0031276922672987 -0.0051111108623445 0 0 -1 250 250 250
-0.0109492400661111 0.00469153840094805 -0.0051111108623445 0 0 -1 250 250 250
-0.0158251617103815 0.00156384613364935 -0.0051111108623445 -1.387779E-17 0 -1 250 250 250
-0.0255770049989223 -0.00312769250012934 -0.0051111108623445 -1.387779E-17 0 -1 250 250 250
-0.0158251617103815 -0.00312769250012934 -0.0051111108623445 -1.387779E-17 0 -1 250 250 250
-0.00977705046534538 -0.00189003290142864 -0.0051111108623445 0 0 -1 250 250 250
-0.00896497536450624 -0.00370361725799739 -0.0051111108623445 0 0 -1 250 250 250
-0.00767070986330509 -0.00521140685304999 -0.0051111108623445 0 0 -1 250 250 250
-0.0158251617103815 -0.00156384625006467 -0.0051111108623445 -1.387779E-17 0 -1 250 250 250
-0.0109492400661111 -0.00312769250012934 -0.0051111108623445 -1.387779E-17 0 -1 250 250 250
-0.0158251617103815 -0.00469153840094805 -0.0051111108623445 -6.938894E-18 0 -1 250 250 250
-0.0109492400661111 -0.00469153840094805 -0.0051111108623445 -6.938894E-18 0 -1 250 250 250
-0.00607331888750196 -0.00625538500025868 0.00488888891413808 0.4263493 0.9045586 0 250 250 250
-0.00607331888750196 -0.00625538500025868 -0.0051111108623445 0.4263493 0.9045586 0 250 250 250
-0.0100403428077698 9.80984043996713E-12 -0.0051111108623445 1 -2.900569E-16 0 250 250 250
-0.00607331888750196 -0.00625538500025868 -0.000111111010483 0.4263493 0.9045586 0 250 250 250
-0.00767070986330509 -0.00521140685304999 0.00488888891413808 0.6573397 0.7535945 0 250 250 250
-0.00896497536450624 -0.00370361725799739 0.00488888891413808 0.8444967 0.5355608 0 250 250 250
-0.00977705046534538 -0.00189003290142864 0.00488888891413808 0.9619266 0.2733078 0 250 250 250
-0.00977705046534538 -0.00189003290142864 -0.0051111108623445 0.9619266 0.2733078 0 250 250 250
-0.00896497536450624 -0.00370361725799739 -0.0051111108623445 0.8444967 0.5355608 0 250 250 250
-0.00767070986330509 -0.00521140685304999 -0.0051111108623445 0.6573397 0.7535945 0 250 250 250
-0.0100403428077698 9.80984043996713E-12 0.00488888891413808 1 -3.625711E-16 0 250 250 250
-0.0100403428077698 9.80984043996713E-12 -0.000111111010483 1 2.900569E-16 0 250 250 250
-0.0100403428077698 9.80984043996713E-12 0.00488888891413808 1 1.450284E-16 0 250 250 250
-0.0100403428077698 9.80984043996713E-12 -0.0051111108623445 1 2.175427E-16 0 250 250 250
-0.00607331888750196 0.0062553845345974 -0.0051111108623445 0.4263493 -0.9045586 0 250 250 250
-0.00607331888750196 0.0062553845345974 0.00488888891413808 0.4263493 -0.9045586 0 250 250 250
-0.00607331888750196 0.0062553845345974 -0.000111111010483 0.4263493 -0.9045586 0 250 250 250
-0.00977705046534538 0.00189003290142864 0.00488888891413808 0.9619266 -0.2733078 0 250 250 250
-0.00896497536450624 0.00370361702516675 0.00488888891413808 0.8444967 -0.5355608 0 250 250 250
-0.00767070986330509 0.00521140685304999 0.00488888891413808 0.6573397 -0.7535944 0 250 250 250
-0.0100403428077698 9.80984043996713E-12 -0.000111111010483 1 0 0 250 250 250
-0.00767070986330509 0.00521140685304999 -0.0051111108623445 0.6573397 -0.7535944 0 250 250 250
-0.00896497536450624 0.00370361702516675 -0.0051111108623445 0.8444967 -0.5355608 0 250 250 250
-0.00977705046534538 0.00189003290142864 -0.0051111108623445 0.9619266 -0.2733078 0 250 250 250
-0.0100403428077698 9.80984043996713E-12 0.0138888889923692 -1 0 0 250 250 250
-0.0100403428077698 9.80984043996713E-12 -0.0141111109405756 -1 0 0 250 250 250
-0.00992489326745272 0.00125834729988128 0.0138888889923692 -0.9833054 0.1819631 0 250 250 250
-0.00992489326745272 0.00125834729988128 -0.0141111109405756 -0.9833054 0.1819631 0 250 250 250
-0.00955480150878429 0.00254552229307592 0.0138888889923692 -0.9297883 0.3680947 0 250 250 250
-0.00955480150878429 0.00254552229307592 -0.0141111109405756 -0.9297883 0.3680947 0 250 250 250
-0.00891310162842274 0.0037841743323952 0.0138888889923692 -0.8369955 0.5472097 0 250 250 250
-0.00891310162842274 0.0037841743323952 -0.0141111109405756 -0.8369955 0.5472097 0 250 250 250
-0.00801486894488335 0.0048899264074862 0.0138888889923692 -0.7071068 0.7071068 0 250 250 250
-0.00801486894488335 0.0048899264074862 -0.0141111109405756 -0.7071068 0.7071068 0 250 250 250
-0.00690911756828427 0.0057881586253643 0.0138888889923692 -0.5472097 0.8369955 0 250 250 250
-0.00690911756828427 0.0057881586253643 -0.0141111109405756 -0.5472097 0.8369955 0 250 250 250
-0.00567046506330371 0.00642985804006457 0.0138888889923692 -0.3680947 0.9297883 0 250 250 250
-0.00567046506330371 0.00642985804006457 -0.0141111109405756 -0.3680947 0.9297883 0 250 250 250
-0.00438329018652439 0.00679995026439428 0.0138888889923692 -0.1819631 0.9833054 0 250 250 250
-0.00438329018652439 0.00679995026439428 -0.0141111109405756 -0.1819631 0.9833054 0 250 250 250
-0.00312494300305843 0.00691540027037263 0.0138888889923692 1.812855E-15 1 0 250 250 250
-0.00312494300305843 0.00691540027037263 -0.0141111109405756 1.812855E-15 1 0 250 250 250
-0.00186659581959248 0.00679995026439428 0.0138888889923692 0.1819631 0.9833054 0 250 250 250
-0.00186659581959248 0.00679995026439428 -0.0141111109405756 0.1819631 0.9833054 0 250 250 250
-0.000579420884605497 0.00642985804006457 0.0138888889923692 0.3680947 0.9297883 0 250 250 250
-0.000579420884605497 0.00642985804006457 -0.0141111109405756 0.3680947 0.9297883 0 250 250 250
0.000659231329336762 0.0057881586253643 0.0138888889923692 0.5472097 0.8369955 0 250 250 250
0.000659231329336762 0.0057881586253643 -0.0141111109405756 0.5472097 0.8369955 0 250 250 250
0.00176498317159712 0.0048899264074862 0.0138888889923692 0.7071068 0.7071068 0 250 250 250
0.00176498317159712 0.0048899264074862 -0.0141111109405756 0.7071068 0.7071068 0 250 250 250
0.00266321585513651 0.0037841743323952 0.0138888889923692 0.8369955 0.5472097 0 250 250 250
0.00266321585513651 0.0037841743323952 -0.0141111109405756 0.8369955 0.5472097 0 250 250 250
0.00330491503700614 0.00254552229307592 0.0138888889923692 0.9297883 0.3680947 0 250 250 250
0.00330491503700614 0.00254552229307592 -0.0141111109405756 0.9297883 0.3680947 0 250 250 250
0.00367500702850521 0.00125834729988128 0.0138888889923692 0.9833054 0.1819631 0 250 250 250
0.00367500702850521 0.00125834729988128 -0.0141111109405756 0.9833054 0.1819631 0 250 250 250
0.00379045703448355 9.80984043996713E-12 0.0138888889923692 1 2.610512E-15 0 250 250 250
0.00379045703448355 9.80984043996713E-12 -0.0141111109405756 1 2.610512E-15 0 250 250 250
0.00367500702850521 -0.00125834729988128 0.0138888889923692 0.9833054 -0.1819631 0 250 250 250
0.00367500702850521 -0.00125834729988128 -0.0141111109405756 0.9833054 -0.1819631 0 250 250 250
0.00330491503700614 -0.00254552229307592 0.0138888889923692 0.9297883 -0.3680947 0 250 250 250
0.00330491503700614 -0.00254552229307592 -0.0141111109405756 0.9297883 -0.3680947 0 250 250 250
0.00266321585513651 -0.0037841743323952 0.0138888889923692 0.8369955 -0.5472097 0 250 250 250
0.00266321585513651 -0.0037841743323952 -0.0141111109405756 0.8369955 -0.5472097 0 250 250 250
0.00176498317159712 -0.0048899264074862 0.0138888889923692 0.7071068 -0.7071068 0 250 250 250
0.00176498317159712 -0.0048899264074862 -0.0141111109405756 0.7071068 -0.7071068 0 250 250 250
0.000659231329336762 -0.0057881586253643 0.0138888889923692 0.5472097 -0.8369955 0 250 250 250
0.000659231329336762 -0.0057881586253643 -0.0141111109405756 0.5472097 -0.8369955 0 250 250 250
-0.000579420884605497 -0.00642985804006457 0.0138888889923692 0.3680947 -0.9297883 0 250 250 250
-0.000579420884605497 -0.00642985804006457 -0.0141111109405756 0.3680947 -0.9297883 0 250 250 250
-0.00186659581959248 -0.00679995026439428 0.0138888889923692 0.1819631 -0.9833054 0 250 250 250
-0.00186659581959248 -0.00679995026439428 -0.0141111109405756 0.1819631 -0.9833054 0 250 250 250
-0.00312494300305843 -0.00691540027037263 0.0138888889923692 7.251422E-17 -1 0 250 250 250
-0.00312494300305843 -0.00691540027037263 -0.0141111109405756 7.251422E-17 -1 0 250 250 250
-0.00438329018652439 -0.00679995026439428 0.0138888889923692 -0.1819631 -0.9833054 0 250 250 250
-0.00438329018652439 -0.00679995026439428 -0.0141111109405756 -0.1819631 -0.9833054 0 250 250 250
-0.00567046506330371 -0.00642985804006457 0.0138888889923692 -0.3680947 -0.9297883 0 250 250 250
-0.00567046506330371 -0.00642985804006457 -0.0141111109405756 -0.3680947 -0.9297883 0 250 250 250
-0.00690911756828427 -0.0057881586253643 0.0138888889923692 -0.5472097 -0.8369955 0 250 250 250
-0.00690911756828427 -0.0057881586253643 -0.0141111109405756 -0.5472097 -0.8369955 0 250 250 250
-0.00801486894488335 -0.0048899264074862 0.0138888889923692 -0.7071068 -0.7071068 0 250 250 250
-0.00801486894488335 -0.0048899264074862 -0.0141111109405756 -0.7071068 -0.7071068 0 250 250 250
-0.00891310162842274 -0.0037841743323952 0.0138888889923692 -0.8369955 -0.5472097 0 250 250 250
-0.00891310162842274 -0.0037841743323952 -0.0141111109405756 -0.8369955 -0.5472097 0 250 250 250
-0.00955480150878429 -0.00254552229307592 0.0138888889923692 -0.9297883 -0.3680947 0 250 250 250
-0.00955480150878429 -0.00254552229307592 -0.0141111109405756 -0.9297883 -0.3680947 0 250 250 250
-0.00992489326745272 -0.00125834729988128 0.0138888889923692 -0.9833054 -0.1819631 0 250 250 250
-0.00992489326745272 -0.00125834729988128 -0.0141111109405756 -0.9833054 -0.1819631 0 250 250 250
-0.0100403428077698 9.80984043996713E-12 0.0138888889923692 -1 0 0 250 250 250
-0.0100403428077698 9.80984043996713E-12 -0.0141111109405756 -1 0 0 250 250 250
-0.0100403428077698 9.80984043996713E-12 0.0138888889923692 0 0 1 250 250 250
-0.00992489326745272 0.00125834729988128 0.0138888889923692 0 0 1 250 250 250
-0.00955480150878429 0.00254552229307592 0.0138888889923692 0 0 1 250 250 250
-0.00891310162842274 0.0037841743323952 0.0138888889923692 0 0 1 250 250 250
-0.00801486894488335 0.0048899264074862 0.0138888889923692 0 0 1 250 250 250
-0.00690911756828427 0.0057881586253643 0.0138888889923692 0 0 1 250 250 250
-0.00567046506330371 0.00642985804006457 0.0138888889923692 0 0 1 250 250 250
-0.00438329018652439 0.00679995026439428 0.0138888889923692 0 0 1 250 250 250
-0.00312494300305843 0.00691540027037263 0.0138888889923692 0 0 1 250 250 250
-0.00186659581959248 0.00679995026439428 0.0138888889923692 0 0 1 250 250 250
-0.000579420884605497 0.00642985804006457 0.0138888889923692 0 0 1 250 250 250
0.000659231329336762 0.0057881586253643 0.0138888889923692 0 0 1 250 250 250
0.00176498317159712 0.0048899264074862 0.0138888889923692 0 0 1 250 250 250
0.00266321585513651 0.0037841743323952 0.0138888889923692 0 0 1 250 250 250
0.00330491503700614 0.00254552229307592 0.0138888889923692 0 0 1 250 250 250
0.00367500702850521 0.00125834729988128 0.0138888889923692 0 0 1 250 250 250
0.00379045703448355 9.80984043996713E-12 0.0138888889923692 0 0 1 250 250 250
0.00367500702850521 -0.00125834729988128 0.0138888889923692 0 0 1 250 250 250
0.00330491503700614 -0.00254552229307592 0.0138888889923692 0 0 1 250 250 250
0.00266321585513651 -0.0037841743323952 0.0138888889923692 0 0 1 250 250 250
0.00176498317159712 -0.0048899264074862 0.0138888889923692 0 0 1 250 250 250
0.000659231329336762 -0.0057881586253643 0.0138888889923692 0 0 1 250 250 250
-0.000579420884605497 -0.00642985804006457 0.0138888889923692 0 0 1 250 250 250
-0.00186659581959248 -0.00679995026439428 0.0138888889923692 0 0 1 250 250 250
-0.00312494300305843 -0.00691540027037263 0.0138888889923692 0 0 1 250 250 250
-0.00438329018652439 -0.00679995026439428 0.0138888889923692 0 0 1 250 250 250
-0.00567046506330371 -0.00642985804006457 0.0138888889923692 0 0 1 250 250 250
-0.00690911756828427 -0.0057881586253643 0.0138888889923692 0 0 1 250 250 250
-0.00801486894488335 -0.0048899264074862 0.0138888889923692 0 0 1 250 250 250
-0.00891310162842274 -0.0037841743323952 0.0138888889923692 0 0 1 250 250 250
-0.00955480150878429 -0.00254552229307592 0.0138888889923692 0 0 1 250 250 250
-0.00992489326745272 -0.00125834729988128 0.0138888889923692 0 0 1 250 250 250
-0.0100403428077698 9.80984043996713E-12 -0.0141111109405756 0 0 -1 250 250 250
-0.00992489326745272 0.00125834729988128 -0.0141111109405756 0 0 -1 250 250 250
-0.00955480150878429 0.00254552229307592 -0.0141111109405756 0 0 -1 250 250 250
-0.00891310162842274 0.0037841743323952 -0.0141111109405756 0 0 -1 250 250 250
-0.00801486894488335 0.0048899264074862 -0.0141111109405756 0 0 -1 250 250 250
-0.00690911756828427 0.0057881586253643 -0.0141111109405756 0 0 -1 250 250 250
-0.00567046506330371 0.00642985804006457 -0.0141111109405756 0 0 -1 250 250 250
-0.00438329018652439 0.00679995026439428 -0.0141111109405756 0 0 -1 250 250 250
-0.00312494300305843 0.00691540027037263 -0.0141111109405756 0 0 -1 250 250 250
-0.00186659581959248 0.00679995026439428 -0.0141111109405756 0 0 -1 250 250 250
-0.000579420884605497 0.00642985804006457 -0.0141111109405756 0 0 -1 250 250 250
0.000659231329336762 0.0057881586253643 -0.0141111109405756 0 0 -1 250 250 250
0.00176498317159712 0.0048899264074862 -0.0141111109405756 0 0 -1 250 250 250
0.00266321585513651 0.0037841743323952 -0.0141111109405756 0 0 -1 250 250 250
0.00330491503700614 0.00254552229307592 -0.0141111109405756 0 0 -1 250 250 250
0.00367500702850521 0.00125834729988128 -0.0141111109405756 0 0 -1 250 250 250
0.00379045703448355 9.80984043996713E-12 -0.0141111109405756 0 0 -1 250 250 250
0.00367500702850521 -0.00125834729988128 -0.0141111109405756 0 0 -1 250 250 250
0.00330491503700614 -0.00254552229307592 -0.0141111109405756 0 0 -1 250 250 250
0.00266321585513651 -0.0037841743323952 -0.0141111109405756 0 0 -1 250 250 250
0.00176498317159712 -0.0048899264074862 -0.0141111109405756 0 0 -1 250 250 250
0.000659231329336762 -0.0057881586253643 -0.0141111109405756 0 0 -1 250 250 250
-0.000579420884605497 -0.00642985804006457 -0.0141111109405756 0 0 -1 250 250 250
-0.00186659581959248 -0.00679995026439428 -0.0141111109405756 0 0 -1 250 250 250
-0.00312494300305843 -0.00691540027037263 -0.0141111109405756 0 0 -1 250 250 250
-0.00438329018652439 -0.00679995026439428 -0.0141111109405756 0 0 -1 250 250 250
-0.00567046506330371 -0.00642985804006457 -0.0141111109405756 0 0 -1 250 250 250
-0.00690911756828427 -0.0057881586253643 -0.0141111109405756 0 0 -1 250 250 250
-0.00801486894488335 -0.0048899264074862 -0.0141111109405756 0 0 -1 250 250 250
-0.00891310162842274 -0.0037841743323952 -0.0141111109405756 0 0 -1 250 250 250
-0.00955480150878429 -0.00254552229307592 -0.0141111109405756 0 0 -1 250 250 250
-0.00992489326745272 -0.00125834729988128 -0.0141111109405756 0 0 -1 250 250 250
3 7 0 4
3 7 6 1
3 6 7 4
3 4 5 6
3 5 3 6
3 2 5 4
3 12 8 15
3 12 14 9
3 13 12 15
3 12 13 14
3 13 11 14
3 10 13 15
3 21 16 22
3 21 23 17
4 20 21 22 18
4 21 20 19 23
4 39 38 40 41
3 42 40 38
3 42 29 37
3 36 42 38
3 29 42 36
3 48 43 44
3 29 48 37
3 43 48 29
3 49 48 44
4 44 50 51 49
3 51 24 47
3 51 47 46
3 24 51 50
3 49 45 48
3 49 46 45
3 35 48 45
3 51 46 49
3 50 31 24
3 41 33 32
3 41 32 25
3 42 34 40
3 40 33 41
3 35 34 42
3 34 33 40
3 39 41 25
3 35 37 48
3 43 26 31
3 43 29 28
3 28 26 43
3 50 44 43
3 43 31 50
3 36 38 39
3 27 28 36
3 36 30 27
3 39 30 36
3 36 28 29
3 25 30 39
3 35 42 37
4 67 69 68 66
3 70 66 68
3 70 65 57
3 64 66 70
3 57 64 70
3 76 72 71
3 57 65 76
3 71 57 76
3 77 72 76
4 72 77 79 78
3 79 75 52
3 79 74 75
3 52 78 79
3 77 76 73
3 77 73 74
3 63 73 76
3 79 77 74
3 78 52 59
3 69 60 61
3 69 53 60
3 70 68 62
3 68 69 61
3 63 70 62
3 62 68 61
3 67 53 69
3 63 76 65
3 71 59 54
3 71 56 57
3 56 71 54
3 78 71 72
3 71 78 59
3 64 67 66
3 55 64 56
3 64 55 58
3 67 64 58
3 64 57 56
3 53 67 58
3 63 65 70
3 83 84 80
3 89 84 83
3 83 81 89
4 88 85 84 89
4 85 88 87 86
3 91 90 86
3 82 91 87
3 86 87 91
3 100 97 92
4 102 98 97 103
3 93 103 100
3 97 100 103
3 96 95 99
3 101 96 99
4 101 99 98 102
3 96 101 94
4 104 106 107 105
4 106 108 109 107
4 108 110 111 109
4 110 112 113 111
4 112 114 115 113
4 114 116 117 115
4 116 118 119 117
4 118 120 121 119
4 120 122 123 121
4 122 124 125 123
4 124 126 127 125
4 126 128 129 127
4 128 130 131 129
4 130 132 133 131
4 132 134 135 133
4 134 136 137 135
4 136 138 139 137
4 138 140 141 139
4 140 142 143 141
4 142 144 145 143
4 144 146 147 145
4 146 148 149 147
4 148 150 151 149
4 150 152 153 151
4 152 154 155 153
4 154 156 157 155
4 156 158 159 157
4 158 160 161 159
4 160 162 163 161
4 162 164 165 163
4 164 166 167 165
4 166 168 169 167
3 188 190 189
3 190 188 187
3 187 192 190
3 187 186 193
3 187 193 192
3 190 192 191
3 186 195 193
3 183 186 185
3 185 184 183
3 183 181 186
3 181 183 182
3 181 180 179
3 181 179 186
3 173 186 179
3 195 194 193
3 197 196 195
3 195 198 197
3 199 198 195
3 195 201 200
3 170 201 186
3 200 199 195
3 186 171 170
3 176 175 173
3 177 176 179
3 179 178 177
3 186 173 172
3 173 175 174
3 179 176 173
3 172 171 186
3 186 201 195
3 220 221 222
3 222 219 220
3 219 222 224
3 219 225 218
3 219 224 225
3 222 223 224
3 218 225 227
3 215 217 218
3 217 215 216
3 215 218 213
3 213 214 215
3 213 211 212
3 213 218 211
3 205 211 218
3 227 225 226
3 229 227 228
3 227 229 230
3 231 227 230
3 227 232 233
3 202 218 233
3 232 227 231
3 218 202 203
3 208 205 207
3 209 211 208
3 211 209 210
3 218 204 205
3 205 206 207
3 211 205 208
3 204 218 203
3 218 227 233
0 0 0 255 250 250 250 255 0 0 0 255 255 255 255 255 0 0
